:SAMPLES-PER-SECOND 30
:FULLY-SPECIFIED
:DEGREES
241
root  40.2258 37.9173 1.84349 -72.8707 84.2691 -65.1935
RightUpLeg  14.868 -8.57822 3.34087
RightLeg  14.7229 -0.73209 1.38741
RightFoot  -19.7211 -0.390349 -3.51637
RightToes  4.01633e-009 0 -3.6325e-017
Spine  -1.80033 0.927582 11.908
Spine1  15.7589 2.03807 -3.84803
HEad  -0.151702 0.0160898 -0.515628
LeftShoulder1  0.605622 1.12591 -18.8834
LeftArm  0.0705086 -32.6069 -38.5192
LeftForeArm  -3.14372 -54.0551 -15.8939
LeftHand  -0.0296285 5.02032 -1.09516
RightShoulder  0.281815 -2.28313 16.7988
RightArm  -5.45563 29.3604 43.4411
RightForeArm  -18.6712 52.9387 16.3295
RightHand  -0.153574 -0.834712 -3.85344
LeftUpLeg  -15.8812 5.29149 5.27506
LeftLeg  -3.53378 -3.93987 0.388872
LeftFoot  -1.48234 0.640339 -7.38289
LeftToes  -1.95724e-009 9.62483e-011 3.51777e-011
242
root  41.5104 37.62 1.81227 -70.9325 84.5551 -62.8569
RightUpLeg  17.1677 -9.25577 2.3155
RightLeg  15.608 0.106725 1.00962
RightFoot  -21.8951 -0.386052 -2.56623
RightToes  4.01633e-009 0 -3.6325e-017
Spine  -1.85054 0.866649 10.3966
Spine1  16.1031 2.03613 -3.83704
HEad  0.248688 0.630891 -0.137409
LeftShoulder1  0.601521 1.13597 -18.8375
LeftArm  0.360418 -35.544 -38.586
LeftForeArm  -4.81803 -51.2217 -14.3887
LeftHand  -0.0275585 4.95345 -1.98614
RightShoulder  0.339014 -2.02024 16.4684
RightArm  -4.54771 32.1442 43.6727
RightForeArm  -20.9016 49.2689 14.438
RightHand  -0.139709 -0.294646 -3.15929
LeftUpLeg  -16.8151 4.65838 4.22255
LeftLeg  1.18891 -3.88216 0.386504
LeftFoot  4.50662 0.384956 -3.15995
LeftToes  -1.95724e-009 9.62483e-011 3.51777e-011
243
root  42.8254 37.3136 1.76272 -57.8082 85.0554 -49.1972
RightUpLeg  18.9134 -8.60779 0.995376
RightLeg  17.7636 0.464337 0.163541
RightFoot  -23.8995 -0.248118 -0.825044
RightToes  4.01633e-009 0 -3.6325e-017
Spine  -1.50119 1.32446 8.35502
Spine1  16.232 2.49267 -3.64469
HEad  0.560214 0.388413 0.960044
LeftShoulder1  0.601997 1.17374 -19.3378
LeftArm  0.970465 -38.178 -38.8912
LeftForeArm  -5.80558 -48.8714 -13.278
LeftHand  -0.0249435 4.89432 -2.53441
RightShoulder  0.358358 -1.90126 15.8658
RightArm  -4.10435 34.3667 43.8824
RightForeArm  -22.7139 46.0175 13.0093
RightHand  -0.121374 -0.610899 -2.89406
LeftUpLeg  -17.523 4.45472 3.11505
LeftLeg  5.74302 -3.62116 -0.0533022
LeftFoot  13.2442 0.00724398 -0.313507
LeftToes  -1.95724e-009 9.62483e-011 3.51777e-011
244
root  44.1499 37.0521 1.7246 -33.5427 85.7771 -23.7661
RightUpLeg  20.0029 -5.97517 -0.709125
RightLeg  22.4007 -0.807314 -0.604382
RightFoot  -25.2243 0.248935 3.41205
RightToes  4.01633e-009 0 -3.6325e-017
Spine  -0.557783 1.72176 6.01371
Spine1  16.54 3.26885 -4.41108
HEad  0.515033 0.0931569 1.35471
LeftShoulder1  0.72071 0.692158 -19.0201
LeftArm  1.46847 -40.3816 -39.0065
LeftForeArm  -7.17975 -46.5321 -12.3116
LeftHand  -0.0282529 5.00343 -2.29601
RightShoulder  0.389697 -1.7658 16
RightArm  -3.79539 36.3376 44.3551
RightForeArm  -24.8286 42.6756 11.754
RightHand  -0.131032 -0.32361 -2.98341
LeftUpLeg  -18.0199 5.2048 1.41568
LeftLeg  12.6361 -4.68166 -1.11549
LeftFoot  13.8698 -0.276243 0.897303
LeftToes  -1.95724e-009 9.62483e-011 3.51777e-011
245
root  45.2766 36.908 1.62456 -5.62224 85.7319 4.95741
RightUpLeg  18.7275 -4.3526 -3.43932
RightLeg  30.1245 -0.255164 -0.37964
RightFoot  -24.2076 0.906467 9.78335
RightToes  4.01633e-009 0 -3.6325e-017
Spine  -2.79735 2.48785 2.45643
Spine1  22.4486 3.64696 -3.08586
HEad  -1.77753 0.0890988 0.122002
LeftShoulder1  0.894269 0.230931 -20.9488
LeftArm  1.0566 -44.5936 -38.1995
LeftForeArm  -8.65937 -43.9986 -11.3656
LeftHand  -0.0359711 5.4086 -2.14485
RightShoulder  0.470727 -1.30805 14.7358
RightArm  -5.45035 39.7539 44.63
RightForeArm  -25.1993 38.6509 10.3167
RightHand  -0.128601 0.255333 -2.69562
LeftUpLeg  -18.1396 6.3972 -1.02932
LeftLeg  18.1193 -5.14704 -1.55911
LeftFoot  10.9637 -0.751868 3.46288
LeftToes  -1.95724e-009 9.62483e-011 3.51777e-011
246
root  46.1933 36.9293 1.42062 8.21754 84.0056 18.3864
RightUpLeg  13.1149 -2.85667 -5.85627
RightLeg  41.2015 0.608096 0.29855
RightFoot  -17.9826 0.80261 15.2036
RightToes  4.01633e-009 0 -3.6325e-017
Spine  -0.668158 2.92107 3.26573
Spine1  21.0522 5.14061 -6.95089
HEad  -1.73028 -0.300989 0.111651
LeftShoulder1  1.03287 -0.40575 -19.9326
LeftArm  0.752259 -45.4717 -38.9729
LeftForeArm  -8.62534 -41.8663 -10.5562
LeftHand  -0.0381934 5.62661 -2.61268
RightShoulder  0.487753 -1.2347 14.822
RightArm  -4.39289 42.0299 45.066
RightForeArm  -26.2373 34.6983 9.122
RightHand  -0.0848369 0.675485 -1.6974
LeftUpLeg  -18.198 7.53581 -2.55563
LeftLeg  20.4785 -4.26274 -1.42604
LeftFoot  8.71164 -0.87388 4.62842
LeftToes  -1.95724e-009 9.62483e-011 3.51777e-011
247
root  47.0431 37.0942 1.20784 10.0925 82.0705 20.0378
RightUpLeg  6.0507 -1.31918 -7.51429
RightLeg  52.4403 1.01921 1.02401
RightFoot  -6.87172 -0.482306 11.9775
RightToes  4.01633e-009 0 -3.6325e-017
Spine  2.5223 2.93155 3.08909
Spine1  18.2235 5.41526 -8.22221
HEad  -1.78492 0.988955 -0.856643
LeftShoulder1  1.00633 -0.372346 -19.4057
LeftArm  0.628082 -45.9227 -38.2463
LeftForeArm  -10.287 -40.7609 -10.2649
LeftHand  -0.0398618 5.66548 -2.47551
RightShoulder  0.595266 -0.630366 13.9654
RightArm  -2.05265 45.2182 46.0775
RightForeArm  -27.7393 30.4923 7.99308
RightHand  -0.0651848 0.779973 -1.31241
LeftUpLeg  -17.2226 9.25173 -3.37732
LeftLeg  21.0953 -3.87085 -1.31462
LeftFoot  6.94702 -0.867788 5.12656
LeftToes  -1.95724e-009 9.62483e-011 3.51777e-011
248
root  47.81 37.2258 1.04537 11.1937 80.843 21.0945
RightUpLeg  0.0410734 -0.54676 -8.56616
RightLeg  60.5148 0.900204 1.2232
RightFoot  -1.58957 -0.693662 7.7303
RightToes  4.01633e-009 0 -3.6325e-017
Spine  8.02574 2.35102 1.99068
Spine1  12.1806 4.56446 -8.94647
HEad  -0.560612 2.93515 -1.37806
LeftShoulder1  0.826263 0.163838 -18.2074
LeftArm  0.30254 -45.134 -38.1364
LeftForeArm  -10.894 -39.1691 -9.7607
LeftHand  -0.0429723 5.73079 -2.04417
RightShoulder  0.746105 0.210565 13.1484
RightArm  1.58142 47.357 48.1783
RightForeArm  -29.5064 26.9913 7.16621
RightHand  -0.0557238 0.770355 -1.14076
LeftUpLeg  -16.2504 10.5323 -3.96703
LeftLeg  21.718 -3.77632 -1.35554
LeftFoot  5.4016 -0.874032 5.7072
LeftToes  -1.95724e-009 9.62483e-011 3.51777e-011
249
root  48.4636 37.4503 0.872057 9.08372 80.7288 18.8376
RightUpLeg  -4.88135 -1.06758 -8.88869
RightLeg  64.889 0.813464 1.29306
RightFoot  -3.12494 -0.665366 8.94079
RightToes  4.01633e-009 0 -3.6325e-017
Spine  9.90432 1.96689 2.60893
Spine1  11.7388 4.39707 -9.65001
HEad  -2.86948 2.44499 -1.38619
LeftShoulder1  0.962513 -0.520463 -17.2326
LeftArm  -0.422923 -46.8824 -37.899
LeftForeArm  -11.9111 -36.8911 -9.08636
LeftHand  -0.0483903 6.09067 -2.48096
RightShoulder  0.765444 0.362428 12.9245
RightArm  3.60556 51.1975 48.0211
RightForeArm  -32.1203 23.1187 6.37194
RightHand  -0.0728109 0.600918 -1.52325
LeftUpLeg  -15.0146 11.1487 -3.85491
LeftLeg  21.2553 -4.1008 -1.58503
LeftFoot  4.7956 -0.921597 6.29001
LeftToes  -1.95724e-009 9.62483e-011 3.51777e-011
250
root  49.0662 37.6611 0.751118 4.66368 81.3904 13.6594
RightUpLeg  -9.62757 -2.10879 -8.16536
RightLeg  66.0683 0.784992 1.30074
RightFoot  -3.21631 -0.659 8.94208
RightToes  4.01633e-009 0 -3.6325e-017
Spine  10.6661 1.59242 2.78581
Spine1  12.2194 3.72521 -8.28579
HEad  -3.32708 2.62309 -1.80062
LeftShoulder1  0.977205 -0.436067 -18.2062
LeftArm  0.378714 -49.9668 -36.9793
LeftForeArm  -13.7905 -34.6849 -8.52182
LeftHand  -0.0502073 6.19469 -2.55295
RightShoulder  0.806073 1.00433 10.6765
RightArm  2.53855 53.9797 47.7407
RightForeArm  -32.3176 19.5066 5.83147
RightHand  0.00852192 1.57798 0.0231643
LeftUpLeg  -14.6403 10.9018 -3.24182
LeftLeg  20.9891 -4.24766 -1.71726
LeftFoot  4.29202 -0.99096 7.01685
LeftToes  -1.95724e-009 9.62483e-011 3.51777e-011
